# xmcd
#
# Track frame offsets:
#	150
#	4875
#	20893
#	43195
#	67608
#	82516
#	103929
#	121197
#	134314
#	157842
#	183771
#	202232
#	225740
#	240432
#	273780
#	290614
#
# Disc length: 4121 seconds
#
# Revision: 2
# Processed by: cddbd v1.5.2PL0 Copyright (c) Steve Scherf et al.
# Submitted via: EZCDAudioConverter 1.3.4.1
#
DISCID=cd101710
DTITLE=Preservation Hall Jazz Band - 50th Anniversary Collection 1/4
DYEAR=2012
DGENRE=
TTITLE0=Band Introduction By Allan Jaffe
TTITLE1=Eh La Bas
TTITLE2=Oh Didn't He Ramble
TTITLE3=I Get The Blues When It Rains
TTITLE4=St. James Infirmary [King Britt Remix]
TTITLE5=Ice Cream
TTITLE6=In The Evening (When The Sun Goes Down)
TTITLE7=Down By The Riverside
TTITLE8=Corinna, Corinna
TTITLE9=I'm Alone Because I Love You
TTITLE10=El Manicero
TTITLE11=Do Lord
TTITLE12=St. James Infirmary
TTITLE13=Just A Little While To Stay Here
TTITLE14=Complicated Life
TTITLE15=We Shall Overcome
EXTD=
EXTT0=
EXTT1=
EXTT2=
EXTT3=
EXTT4=
EXTT5=
EXTT6=
EXTT7=
EXTT8=
EXTT9=
EXTT10=
EXTT11=
EXTT12=
EXTT13=
EXTT14=
EXTT15=
PLAYORDER=
